# Blender v2.76 (sub 0) OBJ File: 'BARRIER.blend'
# www.blender.org
mtllib BARRIER.mtl
o Cube
v 1.000000 0.192835 -1.000000
v 1.000000 0.192835 1.000000
v -1.000000 0.192835 1.000000
v -1.000000 0.192835 -1.000000
v 1.000000 2.897692 -0.999999
v 0.999999 2.897692 1.000001
v -1.000000 2.897692 1.000000
v -1.000000 2.897692 -1.000000
v 0.553946 0.192835 -1.000000
v -0.553945 0.192835 -1.000000
v 0.553946 0.192835 1.000000
v -0.553946 0.192835 1.000000
v 0.553946 3.358560 -1.000000
v -0.553946 3.358560 -1.000000
v 0.553945 3.358560 1.000000
v -0.553947 3.358560 1.000000
v 0.591418 1.845739 0.168432
v 0.591418 3.305140 0.168432
v 0.548328 1.845739 -0.168432
v 0.548328 3.305140 -0.168432
v 26.715469 1.845739 0.168432
v 26.715469 3.305140 0.168432
v 26.672379 1.845739 -0.168432
v 26.672379 3.305140 -0.168432
vt 0.578847 0.377160
vt 0.386263 0.377160
vt 0.386263 0.334208
vt 0.578847 0.334208
vt 0.000219 0.322435
vt 0.000219 0.260675
vt 0.192803 0.260675
vt 0.192803 0.322435
vt 0.000219 0.751332
vt 0.000219 0.490876
vt 0.192803 0.490875
vt 0.192803 0.751332
vt 0.236193 0.334208
vt 0.236193 0.639042
vt 0.193241 0.594664
vt 0.193241 0.334208
vt 0.192803 0.000219
vt 0.000219 0.000219
vt 0.498075 0.184137
vt 0.193241 0.184137
vt 0.193241 0.141186
vt 0.453697 0.141186
vt 0.453697 0.333770
vt 0.193241 0.333770
vt 0.193241 0.290819
vt 0.498075 0.290819
vt 0.385825 0.334208
vt 0.385825 0.594664
vt 0.342874 0.639042
vt 0.342874 0.334208
vt 0.000219 0.429116
vt 0.192803 0.429116
vt 0.578847 0.526792
vt 0.386263 0.526792
vt 0.386263 0.483841
vt 0.578847 0.483841
vt 0.563826 0.281715
vt 0.531388 0.281715
vt 0.531388 0.141186
vt 0.563826 0.141186
vt 0.000219 0.751770
vt 0.806759 0.751770
vt 0.806759 0.892299
vt 0.000219 0.892299
vt 0.530950 0.281715
vt 0.498513 0.281715
vt 0.498513 0.141186
vt 0.530950 0.141186
vt 0.999781 0.140748
vt 0.193241 0.140748
vt 0.193241 0.000219
vt 0.999781 0.000219
vt 0.000219 0.925174
vt 0.000219 0.892737
vt 0.806766 0.892738
vt 0.806766 0.925174
vt 0.806766 0.925612
vt 0.806766 0.958050
vt 0.000219 0.958049
vt 0.000219 0.925612
vn 0.000000 -1.000000 -0.000000
vn -0.718600 0.695500 -0.000000
vn 1.000000 0.000000 0.000000
vn -0.000000 0.000000 1.000000
vn -1.000000 -0.000000 -0.000000
vn 0.000000 0.000000 -1.000000
vn 0.718600 0.695500 0.000000
vn 0.000000 1.000000 -0.000000
vn -0.991900 0.000000 0.126900
vn 0.991900 0.000000 -0.126900
usemtl Material
s off
f 10/1/1 12/2/1 3/3/1 4/4/1
f 14/5/2 8/6/2 7/7/2 16/8/2
f 1/9/3 5/10/3 6/11/3 2/12/3
f 12/13/4 16/14/4 7/15/4 3/16/4
f 3/17/5 7/7/5 8/6/5 4/18/5
f 14/19/6 10/20/6 4/21/6 8/22/6
f 5/23/6 1/24/6 9/25/6 13/26/6
f 13/26/6 9/25/6 10/20/6 14/19/6
f 2/27/4 6/28/4 15/29/4 11/30/4
f 11/30/4 15/29/4 16/14/4 12/13/4
f 5/10/7 13/31/7 15/32/7 6/11/7
f 13/31/8 14/5/8 16/8/8 15/32/8
f 1/33/1 2/34/1 11/35/1 9/36/1
f 9/36/1 11/35/1 12/2/1 10/1/1
f 18/37/9 20/38/9 19/39/9 17/40/9
f 20/41/6 24/42/6 23/43/6 19/44/6
f 24/45/10 22/46/10 21/47/10 23/48/10
f 22/49/4 18/50/4 17/51/4 21/52/4
f 17/53/1 19/54/1 23/55/1 21/56/1
f 22/57/8 24/58/8 20/59/8 18/60/8
