# Blender v2.76 (sub 0) OBJ File: 'concrete block.blend'
# www.blender.org
mtllib concrete block.mtl
o Cube
v 4.049253 -1.000000 -1.000000
v 4.049254 1.000000 -0.285833
v -4.049253 -1.000000 -1.000000
v 0.000000 -1.000000 -1.000000
v -4.049254 1.000000 -0.285833
v 0.000000 1.000000 -0.446723
v 4.049253 -1.000000 1.000000
v 4.049254 1.000000 0.285833
v 3.023671 -1.000000 0.000000
v 4.049253 1.000000 0.000000
v -4.049253 -1.000000 1.000000
v 0.000000 -1.000000 1.000000
v -4.049254 1.000000 0.285833
v 0.000000 1.000000 0.446723
v -3.023671 -1.000000 0.000000
v 0.000000 -1.000000 0.000000
v -4.049253 1.000000 0.000000
v 0.000000 1.000000 0.000000
vn 0.018900 0.302000 -0.953100
vn 0.746300 -0.297600 0.595300
vn 0.000000 1.000000 0.000000
vn 0.000000 -1.000000 0.000000
vn 1.000000 0.000000 0.000000
vn -0.018900 0.302000 -0.953100
vn -0.746300 -0.297600 0.595300
vn 0.018900 0.302000 0.953100
vn 0.746300 -0.297600 -0.595300
vn -0.018900 0.302000 0.953100
vn -0.746300 -0.297600 -0.595300
usemtl Material
s off
f 2//1 1//1 4//1 6//1
f 1//2 2//2 10//2 9//2
f 2//3 6//3 18//3 10//3
f 1//4 9//4 16//4 4//4
f 16//5 4//5 6//5 18//5
f 5//6 6//6 4//6 3//6
f 3//7 15//7 17//7 5//7
f 5//3 17//3 18//3 6//3
f 3//4 4//4 16//4 15//4
f 8//8 14//8 12//8 7//8
f 7//9 9//9 10//9 8//9
f 8//3 10//3 18//3 14//3
f 7//4 12//4 16//4 9//4
f 16//5 18//5 14//5 12//5
f 13//10 11//10 12//10 14//10
f 11//11 13//11 17//11 15//11
f 13//3 14//3 18//3 17//3
f 11//4 15//4 16//4 12//4
